<svg id="Layer_1" data-name="Layer 1" xmlns="http://www.w3.org/2000/svg" viewBox="0 0 1920 251.66"><defs><style>.cls-1{fill:#66bb6a;}.cls-2{fill:#42a047;}.cls-3{fill:#327e3e;}.cls-4{fill:#1e5f30;}.cls-5{fill:#f5f5f6;}.cls-6{fill:#e1e1e0;}.cls-7{fill:#6e4d42;}.cls-8{fill:#5d4137;}.cls-9{fill:#4e352e;}</style></defs><title>alt_band-01-01-01</title><path class="cls-1" d="M1386.42,126.38V205H1108.64c121.15,0,121.15-81.31,242.32-81.31A222.06,222.06,0,0,1,1386.42,126.38Z"/><path class="cls-2" d="M1386.42,126.38V205H1351V123.72A222.06,222.06,0,0,1,1386.42,126.38Z"/><rect class="cls-1" x="1061.03" y="205.02" width="1210.17" height="47.04"/><path class="cls-1" d="M1688.84,205C1542,205,1542,106.48,1395.16,106.48S1248.32,205,1101.48,205Z"/><path class="cls-2" d="M1395.16,205h293.68C1542,205,1542,106.48,1395.16,106.48h0Z"/><path class="cls-3" d="M1581.35,225.28A11.75,11.75,0,0,0,1569.6,237h23.49A11.75,11.75,0,0,0,1581.35,225.28Z"/><path class="cls-4" d="M1592.18,229.31a7.72,7.72,0,0,0-7.72,7.72h15.44A7.72,7.72,0,0,0,1592.18,229.31Z"/><path class="cls-5" d="M1868.15,235.45a12.37,12.37,0,0,0-12.37,12.37h24.74A12.37,12.37,0,0,0,1868.15,235.45Z"/><path class="cls-6" d="M1880.52,247.82a12.37,12.37,0,0,0-12.37-12.37v12.37Z"/><path class="cls-5" d="M1283.41,226.31A12.37,12.37,0,0,0,1271,238.68h24.74A12.37,12.37,0,0,0,1283.41,226.31Z"/><path class="cls-6" d="M1295.78,238.68a12.37,12.37,0,0,0-12.37-12.37v12.37Z"/><path class="cls-5" d="M1362.56,217a6.52,6.52,0,0,0-6.52,6.52h13A6.52,6.52,0,0,0,1362.56,217Z"/><path class="cls-6" d="M1369.07,223.48a6.52,6.52,0,0,0-6.52-6.52v6.52Z"/><path class="cls-7" d="M1466.11,109.9v14.22c0,.49.61.89,1.35.89s1.35-.4,1.35-.89V109.9Z"/><path class="cls-8" d="M1468.81,109.9v14.22c0,.49-.61.89-1.35.89V109.9Z"/><polygon class="cls-3" points="1467.46 78.35 1455.06 117.45 1479.86 117.45 1467.46 78.35"/><polygon class="cls-4" points="1479.86 117.45 1467.46 78.35 1467.46 117.45 1479.86 117.45"/><path class="cls-7" d="M1361.57,100.11V110.5c0,.36.44.65,1,.65s1-.29,1-.65V100.11Z"/><path class="cls-8" d="M1363.54,100.11V110.5c0,.36-.44.65-1,.65v-11Z"/><polygon class="cls-3" points="1362.56 77.05 1353.49 105.63 1371.62 105.63 1362.56 77.05"/><polygon class="cls-4" points="1371.62 105.63 1362.56 77.05 1362.56 105.63 1371.62 105.63"/><path class="cls-7" d="M1551.84,172.34v14.22c0,.49.61.89,1.35.89s1.35-.4,1.35-.89V172.34Z"/><path class="cls-8" d="M1554.54,172.34v14.22c0,.49-.61.89-1.35.89V172.34Z"/><polygon class="cls-3" points="1553.19 140.79 1540.79 179.9 1565.59 179.9 1553.19 140.79"/><polygon class="cls-4" points="1565.59 179.9 1553.19 140.79 1553.19 179.9 1565.59 179.9"/><path class="cls-7" d="M1597.86,196.82v13.33c0,.46.57.84,1.27.84s1.27-.37,1.27-.84V196.82Z"/><path class="cls-8" d="M1600.4,196.82v13.33c0,.46-.57.84-1.27.84V196.82Z"/><polygon class="cls-3" points="1599.13 167.23 1587.5 203.91 1610.76 203.91 1599.13 167.23"/><polygon class="cls-4" points="1610.76 203.91 1599.13 167.23 1599.13 203.91 1610.76 203.91"/><path class="cls-7" d="M1432.68,116V129.3c0,.46.57.84,1.27.84s1.27-.37,1.27-.84V116Z"/><path class="cls-8" d="M1435.21,116V129.3c0,.46-.57.84-1.27.84V116Z"/><polygon class="cls-3" points="1433.95 86.38 1422.32 123.05 1445.58 123.05 1433.95 86.38"/><polygon class="cls-4" points="1445.58 123.05 1433.95 86.38 1433.95 123.05 1445.58 123.05"/><path class="cls-7" d="M1257.28,149v14.22c0,.49.61.89,1.35.89s1.35-.4,1.35-.89V149Z"/><path class="cls-8" d="M1260,149v14.22c0,.49-.61.89-1.35.89V149Z"/><polygon class="cls-3" points="1258.63 117.46 1246.23 156.57 1271.04 156.57 1258.63 117.46"/><polygon class="cls-4" points="1271.04 156.57 1258.63 117.46 1258.63 156.57 1271.04 156.57"/><path class="cls-7" d="M1079.93,146.08v14.22c0,.49.61.89,1.35.89s1.35-.4,1.35-.89V146.08Z"/><path class="cls-8" d="M1082.63,146.08v14.22c0,.49-.61.89-1.35.89V146.08Z"/><polygon class="cls-3" points="1081.28 114.53 1068.88 153.63 1093.68 153.63 1081.28 114.53"/><polygon class="cls-4" points="1093.68 153.63 1081.28 114.53 1081.28 153.63 1093.68 153.63"/><path class="cls-7" d="M1412.44,168.6v22.23c0,.77.95,1.39,2.11,1.39s2.11-.62,2.11-1.39V168.6Z"/><path class="cls-8" d="M1416.67,168.6v22.23c0,.77-.95,1.39-2.11,1.39V168.6Z"/><polygon class="cls-3" points="1414.55 119.27 1395.16 180.41 1433.95 180.41 1414.55 119.27"/><polygon class="cls-4" points="1433.95 180.41 1414.55 119.27 1414.55 180.41 1433.95 180.41"/><path class="cls-7" d="M1331,161.6v22.23c0,.77.95,1.39,2.11,1.39s2.11-.62,2.11-1.39V161.6Z"/><path class="cls-8" d="M1335.21,161.6v22.23c0,.77-.95,1.39-2.11,1.39V161.6Z"/><polygon class="cls-3" points="1333.1 112.27 1313.7 173.41 1352.49 173.41 1333.1 112.27"/><polygon class="cls-4" points="1352.49 173.41 1333.1 112.27 1333.1 173.41 1352.49 173.41"/><path class="cls-3" d="M1106.65,218.35a6.88,6.88,0,0,0-6.88,6.88h13.75A6.88,6.88,0,0,0,1106.65,218.35Z"/><path class="cls-4" d="M1119.88,213.63a11.6,11.6,0,0,0-11.6,11.6h23.2A11.6,11.6,0,0,0,1119.88,213.63Z"/><rect class="cls-1" x="1" y="205.02" width="1210.17" height="47.04"/><path class="cls-1" d="M335.13,205H1V159.58C26.64,142.88,54.93,128,105.45,128,220.3,128,220.3,205,335.13,205Z"/><path class="cls-2" d="M105.46,205H335.12C220.29,205,220.29,128,105.46,128h0Z"/><path class="cls-1" d="M628.8,205C482,205,482,106.48,335.13,106.48S188.28,205,41.44,205Z"/><path class="cls-2" d="M335.12,205H628.8C482,205,482,106.48,335.13,106.48h0Z"/><path class="cls-7" d="M249.29,180.31V228.7c0,1.67,2.06,3,4.6,3s4.6-1.36,4.6-3V180.31Z"/><path class="cls-9" d="M258.49,180.31V228.7c0,1.67-2.06,3-4.6,3V180.31Z"/><ellipse class="cls-3" cx="253.89" cy="151.12" rx="30.51" ry="57.43"/><path class="cls-4" d="M253.89,93.7V208.55c16.85,0,30.51-25.71,30.51-57.43S270.74,93.7,253.89,93.7Z"/><circle class="cls-4" cx="239.74" cy="185.96" r="2.94"/><circle class="cls-4" cx="247.65" cy="164.63" r="2.94"/><circle class="cls-4" cx="229.16" cy="148.97" r="2.94"/><circle class="cls-4" cx="244.71" cy="128.63" r="2.94"/><circle class="cls-3" cx="260.12" cy="106.39" r="2.94"/><circle class="cls-3" cx="272.08" cy="120.92" r="2.94"/><circle class="cls-3" cx="260.12" cy="137.85" r="2.94"/><circle class="cls-3" cx="272.08" cy="147.46" r="2.94"/><circle class="cls-3" cx="259.13" cy="170.51" r="2.94"/><circle class="cls-3" cx="268.6" cy="190.6" r="2.94"/><circle class="cls-4" cx="239.74" cy="111.19" r="2.94"/><path class="cls-7" d="M137,148.08v66.11c0,2.29,2.81,4.14,6.29,4.14s6.29-1.85,6.29-4.14V148.08Z"/><path class="cls-9" d="M149.54,148.08v66.11c0,2.29-2.81,4.14-6.29,4.14V148.08Z"/><ellipse class="cls-3" cx="143.25" cy="108.21" rx="41.68" ry="78.45"/><path class="cls-4" d="M143.25,29.76v156.9c23,0,41.68-35.12,41.68-78.45S166.27,29.76,143.25,29.76Z"/><circle class="cls-4" cx="123.92" cy="155.8" r="4.01"/><circle class="cls-4" cx="134.73" cy="126.66" r="4.01"/><circle class="cls-4" cx="109.47" cy="105.27" r="4.01"/><circle class="cls-4" cx="130.72" cy="77.48" r="4.01"/><circle class="cls-3" cx="151.77" cy="47.11" r="4.01"/><circle class="cls-3" cx="168.11" cy="66.95" r="4.01"/><circle class="cls-3" cx="151.77" cy="90.08" r="4.01"/><circle class="cls-3" cx="168.11" cy="103.2" r="4.01"/><circle class="cls-3" cx="150.41" cy="134.69" r="4.01"/><circle class="cls-3" cx="163.36" cy="162.13" r="4.01"/><circle class="cls-4" cx="123.92" cy="53.66" r="4.01"/><path class="cls-7" d="M1054.53,167v56.7c0,2,2.41,3.55,5.39,3.55s5.39-1.59,5.39-3.55V167Z"/><path class="cls-9" d="M1065.31,167v56.7c0,2-2.41,3.55-5.39,3.55V167Z"/><ellipse class="cls-3" cx="1059.92" cy="132.83" rx="35.75" ry="67.28"/><path class="cls-4" d="M1059.92,65.54V200.11c19.74,0,35.75-30.12,35.75-67.28S1079.66,65.54,1059.92,65.54Z"/><circle class="cls-4" cx="1043.34" cy="173.65" r="3.44"/><circle class="cls-4" cx="1052.61" cy="148.66" r="3.44"/><circle class="cls-4" cx="1030.94" cy="130.31" r="3.44"/><circle class="cls-4" cx="1049.17" cy="106.48" r="3.44"/><circle class="cls-3" cx="1067.23" cy="80.42" r="3.44"/><circle class="cls-3" cx="1081.24" cy="97.45" r="3.44"/><circle class="cls-3" cx="1067.23" cy="117.28" r="3.44"/><circle class="cls-3" cx="1081.24" cy="128.53" r="3.44"/><circle class="cls-3" cx="1066.06" cy="155.54" r="3.44"/><circle class="cls-3" cx="1077.16" cy="179.08" r="3.44"/><circle class="cls-4" cx="1043.34" cy="86.05" r="3.44"/><path class="cls-3" d="M521.32,225.28A11.75,11.75,0,0,0,509.57,237h23.49A11.75,11.75,0,0,0,521.32,225.28Z"/><path class="cls-4" d="M532.15,229.31a7.72,7.72,0,0,0-7.72,7.72h15.44A7.72,7.72,0,0,0,532.15,229.31Z"/><path class="cls-7" d="M1216.85,186.81v63.84c0,2.21,2.72,4,6.07,4s6.07-1.79,6.07-4V186.81Z"/><path class="cls-9" d="M1229,186.81v63.84c0,2.21-2.72,4-6.07,4V186.81Z"/><ellipse class="cls-3" cx="1222.92" cy="148.31" rx="40.26" ry="75.76"/><path class="cls-4" d="M1222.92,72.55V224.07c22.23,0,40.26-33.92,40.26-75.76S1245.15,72.55,1222.92,72.55Z"/><circle class="cls-4" cx="1204.25" cy="194.27" r="3.88"/><circle class="cls-4" cx="1214.69" cy="166.13" r="3.88"/><circle class="cls-4" cx="1190.29" cy="145.47" r="3.88"/><circle class="cls-4" cx="1210.81" cy="118.64" r="3.88"/><circle class="cls-3" cx="1231.15" cy="89.3" r="3.88"/><circle class="cls-3" cx="1246.92" cy="108.47" r="3.88"/><circle class="cls-3" cx="1231.15" cy="130.81" r="3.88"/><circle class="cls-3" cx="1246.92" cy="143.47" r="3.88"/><circle class="cls-3" cx="1229.83" cy="173.88" r="3.88"/><circle class="cls-3" cx="1242.33" cy="200.39" r="3.88"/><circle class="cls-4" cx="1204.25" cy="95.63" r="3.88"/><path class="cls-3" d="M1168.12,246.94a7.72,7.72,0,0,0-7.72,7.72h15.44A7.72,7.72,0,0,0,1168.12,246.94Z"/><path class="cls-4" d="M1183,241.64a13,13,0,0,0-13,13h26A13,13,0,0,0,1183,241.64Z"/><path class="cls-5" d="M808.12,235.45a12.37,12.37,0,0,0-12.37,12.37h24.74A12.37,12.37,0,0,0,808.12,235.45Z"/><path class="cls-6" d="M820.49,247.82a12.37,12.37,0,0,0-12.37-12.37v12.37Z"/><path class="cls-5" d="M223.37,226.31A12.37,12.37,0,0,0,211,238.68h24.74A12.37,12.37,0,0,0,223.37,226.31Z"/><path class="cls-6" d="M235.75,238.68a12.37,12.37,0,0,0-12.37-12.37v12.37Z"/><path class="cls-5" d="M962.15,208.22a6.52,6.52,0,0,0-6.52,6.52h13A6.52,6.52,0,0,0,962.15,208.22Z"/><path class="cls-6" d="M968.67,214.73a6.52,6.52,0,0,0-6.52-6.52v6.52Z"/><path class="cls-5" d="M666.91,208.22a6.52,6.52,0,0,0-6.52,6.52h13A6.52,6.52,0,0,0,666.91,208.22Z"/><path class="cls-6" d="M673.43,214.73a6.52,6.52,0,0,0-6.52-6.52v6.52Z"/><path class="cls-5" d="M302.52,217a6.52,6.52,0,0,0-6.52,6.52h13A6.52,6.52,0,0,0,302.52,217Z"/><path class="cls-6" d="M309,223.48a6.52,6.52,0,0,0-6.52-6.52v6.52Z"/><path class="cls-5" d="M1088.13,221.18a9.49,9.49,0,0,0-9.49,9.49h19A9.49,9.49,0,0,0,1088.13,221.18Z"/><path class="cls-6" d="M1097.62,230.67a9.49,9.49,0,0,0-9.49-9.49v9.49Z"/><path class="cls-7" d="M406.08,109.9v14.22c0,.49.61.89,1.35.89s1.35-.4,1.35-.89V109.9Z"/><path class="cls-8" d="M408.78,109.9v14.22c0,.49-.61.89-1.35.89V109.9Z"/><polygon class="cls-3" points="407.43 78.35 395.03 117.45 419.83 117.45 407.43 78.35"/><polygon class="cls-4" points="419.83 117.45 407.43 78.35 407.43 117.45 419.83 117.45"/><path class="cls-7" d="M301.54,100.11V110.5c0,.36.44.65,1,.65s1-.29,1-.65V100.11Z"/><path class="cls-8" d="M303.51,100.11V110.5c0,.36-.44.65-1,.65v-11Z"/><polygon class="cls-3" points="302.52 77.05 293.46 105.63 311.59 105.63 302.52 77.05"/><polygon class="cls-4" points="311.59 105.63 302.52 77.05 302.52 105.63 311.59 105.63"/><path class="cls-7" d="M491.8,172.34v14.22c0,.49.61.89,1.35.89s1.35-.4,1.35-.89V172.34Z"/><path class="cls-8" d="M494.51,172.34v14.22c0,.49-.61.89-1.35.89V172.34Z"/><polygon class="cls-3" points="493.15 140.79 480.75 179.9 505.56 179.9 493.15 140.79"/><polygon class="cls-4" points="505.56 179.9 493.15 140.79 493.15 179.9 505.56 179.9"/><path class="cls-7" d="M998.33,189.36v14.22c0,.49.61.89,1.35.89s1.35-.4,1.35-.89V189.36Z"/><path class="cls-8" d="M1001,189.36v14.22c0,.49-.61.89-1.35.89V189.36Z"/><polygon class="cls-3" points="999.68 157.81 987.28 196.91 1012.08 196.91 999.68 157.81"/><polygon class="cls-4" points="1012.08 196.91 999.68 157.81 999.68 196.91 1012.08 196.91"/><path class="cls-7" d="M197.25,149v14.22c0,.49.61.89,1.35.89s1.35-.4,1.35-.89V149Z"/><path class="cls-8" d="M200,149v14.22c0,.49-.61.89-1.35.89V149Z"/><polygon class="cls-3" points="198.6 117.46 186.2 156.57 211 156.57 198.6 117.46"/><polygon class="cls-4" points="211 156.57 198.6 117.46 198.6 156.57 211 156.57"/><path class="cls-7" d="M19.9,146.08v14.22c0,.49.61.89,1.35.89s1.35-.4,1.35-.89V146.08Z"/><path class="cls-8" d="M22.6,146.08v14.22c0,.49-.61.89-1.35.89V146.08Z"/><polygon class="cls-3" points="21.25 114.53 8.85 153.63 33.65 153.63 21.25 114.53"/><polygon class="cls-4" points="33.65 153.63 21.25 114.53 21.25 153.63 33.65 153.63"/><path class="cls-7" d="M352.41,168.6v22.23c0,.77.95,1.39,2.11,1.39s2.11-.62,2.11-1.39V168.6Z"/><path class="cls-8" d="M356.63,168.6v22.23c0,.77-.95,1.39-2.11,1.39V168.6Z"/><polygon class="cls-3" points="354.52 119.27 335.13 180.41 373.91 180.41 354.52 119.27"/><polygon class="cls-4" points="373.91 180.41 354.52 119.27 354.52 180.41 373.91 180.41"/><path class="cls-7" d="M48.68,175.78V218.1c0,1.46,1.8,2.65,4,2.65s4-1.19,4-2.65V175.78Z"/><path class="cls-9" d="M56.73,175.78V218.1c0,1.46-1.8,2.65-4,2.65v-45Z"/><ellipse class="cls-3" cx="52.71" cy="150.26" rx="26.68" ry="50.22"/><path class="cls-4" d="M52.71,100V200.48c14.74,0,26.68-22.48,26.68-50.22S67.45,100,52.71,100Z"/><circle class="cls-4" cx="40.34" cy="180.73" r="2.57"/><circle class="cls-4" cx="47.25" cy="162.08" r="2.57"/><circle class="cls-4" cx="31.08" cy="148.38" r="2.57"/><circle class="cls-4" cx="44.68" cy="130.59" r="2.57"/><circle class="cls-3" cx="58.16" cy="111.15" r="2.57"/><circle class="cls-3" cx="68.62" cy="123.85" r="2.57"/><circle class="cls-3" cx="58.16" cy="138.66" r="2.57"/><circle class="cls-3" cx="68.62" cy="147.06" r="2.57"/><circle class="cls-3" cx="57.29" cy="167.21" r="2.57"/><circle class="cls-3" cx="65.58" cy="184.78" r="2.57"/><circle class="cls-4" cx="40.34" cy="115.35" r="2.57"/><path class="cls-3" d="M46.62,218.35a6.88,6.88,0,0,0-6.88,6.88H53.49A6.88,6.88,0,0,0,46.62,218.35Z"/><path class="cls-4" d="M59.85,213.63a11.6,11.6,0,0,0-11.6,11.6h23.2A11.6,11.6,0,0,0,59.85,213.63Z"/><path class="cls-7" d="M1475.26,180.31V228.7c0,1.67,2.06,3,4.6,3s4.6-1.36,4.6-3V180.31Z"/><path class="cls-9" d="M1484.47,180.31V228.7c0,1.67-2.06,3-4.6,3V180.31Z"/><ellipse class="cls-3" cx="1479.86" cy="151.12" rx="30.51" ry="57.43"/><path class="cls-4" d="M1479.86,93.7V208.55c16.85,0,30.51-25.71,30.51-57.43S1496.72,93.7,1479.86,93.7Z"/><circle class="cls-4" cx="1465.72" cy="185.96" r="2.94"/><circle class="cls-4" cx="1473.62" cy="164.63" r="2.94"/><circle class="cls-4" cx="1455.13" cy="148.97" r="2.94"/><circle class="cls-4" cx="1470.69" cy="128.63" r="2.94"/><circle class="cls-3" cx="1486.1" cy="106.39" r="2.94"/><circle class="cls-3" cx="1498.06" cy="120.92" r="2.94"/><circle class="cls-3" cx="1486.1" cy="137.85" r="2.94"/><circle class="cls-3" cx="1498.06" cy="147.46" r="2.94"/><circle class="cls-3" cx="1485.1" cy="170.51" r="2.94"/><circle class="cls-3" cx="1494.58" cy="190.6" r="2.94"/><circle class="cls-4" cx="1465.72" cy="111.19" r="2.94"/><path class="cls-4" d="M981.06,203.06l-62.28.56-.37-41.44,5,0,.32,35.55,22.49-.2-.29-32.09,5,0,.29,32.09,24.74-.22-.33-36.42,5,0Z"/><path class="cls-4" d="M980.6,151.33l-62.28.56,0-5.19,38.75-.35-21.48-21.78-.06-7.09,16.33,16.64,28.47-19,.05,5.8-24.85,17,8.12,8.41,17-.15Z"/><path class="cls-4" d="M925.62,107.7l-7.7.07-.05-5.71,7.7-.07ZM980.2,107l-44.81.4,0-5.19,44.81-.4Z"/><path class="cls-4" d="M980,84l0,5.19-44.81.4,0-5.19,6.75-.06V84.2a13.66,13.66,0,0,1-6-5.66,16.69,16.69,0,0,1-2.11-8.11,17.51,17.51,0,0,1,.64-5.28,11.94,11.94,0,0,1,1.83-3.69,10.74,10.74,0,0,1,2.7-2.53,18.56,18.56,0,0,1,3.36-1.72,15.1,15.1,0,0,1-6.58-6,17.24,17.24,0,0,1-2.2-8.59,15.08,15.08,0,0,1,1.45-7.32A11,11,0,0,1,939,31.11a15.36,15.36,0,0,1,5.65-2,44.72,44.72,0,0,1,6.57-.53l28.29-.25,0,5.19-31,.28a12.63,12.63,0,0,0-7.59,2.1q-2.75,2.06-2.7,7.59a12.53,12.53,0,0,0,5.19,10.08,10,10,0,0,0,2.65,1.4,22,22,0,0,0,3.17.88,25.84,25.84,0,0,0,3.29.45q1.65.11,3,.1l24.14-.22,0,5.19-31,.28a12.63,12.63,0,0,0-7.59,2.1q-2.75,2.06-2.7,7.59a12.53,12.53,0,0,0,5.19,10.08,10,10,0,0,0,2.65,1.4,22,22,0,0,0,3.17.88,25.75,25.75,0,0,0,3.29.45q1.65.11,3,.1Z"/><path class="cls-4" d="M775.59,141.46a34.86,34.86,0,0,1,2.09-12.37,27,27,0,0,1,6-9.55,26.63,26.63,0,0,1,9.49-6.15,37.19,37.19,0,0,1,24.6-.13,26.67,26.67,0,0,1,8.9,5.43,22,22,0,0,1,5.43,8.11,29,29,0,0,1-.2,20.81,29.91,29.91,0,0,1-5.37,8.38,42.23,42.23,0,0,1-7.59,6.54q-4.25,2.88-8.7,5.43t-8.77,4.91a58.88,58.88,0,0,0-7.72,5q-2.23,1.7-4.32,3.6a30.78,30.78,0,0,0-3.8,4.12,20,20,0,0,0-2.75,4.91,18.23,18.23,0,0,0-1.18,6h51.43v7.07H772.85a55.4,55.4,0,0,1,1.44-12A25.07,25.07,0,0,1,780,181a69.08,69.08,0,0,1,10-9.42q5.17-3.93,10.14-7t9.42-5.63a47.4,47.4,0,0,0,7.85-5.56,23.41,23.41,0,0,0,5.37-6.81,20,20,0,0,0,2-9.29,19.46,19.46,0,0,0-1.57-8,17.71,17.71,0,0,0-4.32-6,18.16,18.16,0,0,0-6.41-3.73,24.72,24.72,0,0,0-8-1.24,18.07,18.07,0,0,0-8.31,1.9,20.66,20.66,0,0,0-6.41,5,22.31,22.31,0,0,0-4.12,7.33,23.12,23.12,0,0,0-1.18,8.9Z"/><path class="cls-1" d="M848.36,141.46a34.86,34.86,0,0,1,2.09-12.37,27,27,0,0,1,6-9.55,26.63,26.63,0,0,1,9.49-6.15,37.19,37.19,0,0,1,24.6-.13,26.67,26.67,0,0,1,8.9,5.43,22,22,0,0,1,5.43,8.11,29,29,0,0,1-.2,20.81,29.91,29.91,0,0,1-5.37,8.38,42.23,42.23,0,0,1-7.59,6.54q-4.25,2.88-8.7,5.43t-8.77,4.91a58.88,58.88,0,0,0-7.72,5q-2.23,1.7-4.32,3.6a30.78,30.78,0,0,0-3.8,4.12,20,20,0,0,0-2.75,4.91,18.23,18.23,0,0,0-1.18,6h51.43v7.07H845.61a55.4,55.4,0,0,1,1.44-12A25.07,25.07,0,0,1,852.81,181a69.08,69.08,0,0,1,10-9.42q5.17-3.93,10.14-7t9.42-5.63a47.4,47.4,0,0,0,7.85-5.56,23.41,23.41,0,0,0,5.37-6.81,20,20,0,0,0,2-9.29,19.46,19.46,0,0,0-1.57-8,17.71,17.71,0,0,0-4.32-6,18.16,18.16,0,0,0-6.41-3.73,24.72,24.72,0,0,0-8-1.24,18.07,18.07,0,0,0-8.31,1.9,20.66,20.66,0,0,0-6.41,5,22.31,22.31,0,0,0-4.12,7.33,23.12,23.12,0,0,0-1.18,8.9Z"/><path class="cls-4" d="M878.86,134.92H855v-5.5q5.23-.39,9.49-1a21.48,21.48,0,0,0,7.46-2.49,15.2,15.2,0,0,0,5.37-5.3,26.63,26.63,0,0,0,3.21-9.36h6.67V203.5h-8.38Z"/><path class="cls-1" d="M845.53,203.62a55.4,55.4,0,0,1,1.44-12,25.07,25.07,0,0,1,5.76-10.47,69.08,69.08,0,0,1,10-9.42q5.17-3.93,10.14-7t9.42-5.63a47.4,47.4,0,0,0,7.85-5.56l9.1,2.62a42.23,42.23,0,0,1-7.59,6.54q-4.25,2.88-8.7,5.43T874.2,173a58.88,58.88,0,0,0-7.72,5q-2.23,1.7-4.32,3.6a30.78,30.78,0,0,0-3.8,4.12,20,20,0,0,0-2.75,4.91,18.23,18.23,0,0,0-1.18,6H870.1"/></svg>