<?xml version="1.0" encoding="UTF-8" standalone="no"?>
<svg
   xmlns:dc="http://purl.org/dc/elements/1.1/"
   xmlns:cc="http://creativecommons.org/ns#"
   xmlns:rdf="http://www.w3.org/1999/02/22-rdf-syntax-ns#"
   xmlns:svg="http://www.w3.org/2000/svg"
   xmlns="http://www.w3.org/2000/svg"
   xmlns:sodipodi="http://sodipodi.sourceforge.net/DTD/sodipodi-0.dtd"
   xmlns:inkscape="http://www.inkscape.org/namespaces/inkscape"
   id="Layer_1"
   data-name="Layer 1"
   viewBox="0 0 1920 278.46"
   version="1.1"
   sodipodi:docname="alt-bant.svg"
   inkscape:export-filename="/home/ege/public_html/bisiklet-ve-kent-calistayi/src/assets/alt-bant.svg.png"
   inkscape:export-xdpi="459.20999"
   inkscape:export-ydpi="459.20999"
   inkscape:version="0.92.3 (2405546, 2018-03-11)">
  <metadata
     id="metadata413">
    <rdf:RDF>
      <cc:Work
         rdf:about="">
        <dc:format>image/svg+xml</dc:format>
        <dc:type
           rdf:resource="http://purl.org/dc/dcmitype/StillImage" />
        <dc:title>alt_band</dc:title>
      </cc:Work>
    </rdf:RDF>
  </metadata>
  <sodipodi:namedview
     pagecolor="#ffffff"
     bordercolor="#666666"
     borderopacity="1"
     objecttolerance="10"
     gridtolerance="10"
     guidetolerance="10"
     inkscape:pageopacity="0"
     inkscape:pageshadow="2"
     inkscape:window-width="1920"
     inkscape:window-height="1017"
     id="namedview411"
     showgrid="false"
     inkscape:zoom="3.2"
     inkscape:cx="810.08061"
     inkscape:cy="144.6517"
     inkscape:window-x="0"
     inkscape:window-y="27"
     inkscape:window-maximized="1"
     inkscape:current-layer="Layer_1" />
  <defs
     id="defs4">
    <style
       id="style2">.cls-1{fill:#66bb6a;}.cls-2{fill:#42a047;}.cls-3{fill:#327e3e;}.cls-4{fill:#1e5f30;}.cls-5{fill:#f5f5f6;}.cls-6{fill:#e1e1e0;}.cls-7{fill:#6e4d42;}.cls-8{fill:#5d4137;}.cls-9{fill:#4e352e;}</style>
  </defs>
  <title
     id="title6">alt_band</title>
  <rect
     class="cls-1"
     x="-0.81"
     y="207.51"
     width="2271.03"
     height="69.95"
     id="rect8" />
  <path
     class="cls-1"
     d="M1385.44,108.66v78.65H1107.66c121.15,0,121.15-81.31,242.32-81.31A222.06,222.06,0,0,1,1385.44,108.66Z"
     id="path10" />
  <path
     class="cls-2"
     d="M1385.44,108.66v78.65H1350V106A222.06,222.06,0,0,1,1385.44,108.66Z"
     id="path12" />
  <rect
     class="cls-1"
     x="1060.06"
     y="187.3"
     width="1210.17"
     height="47.04"
     id="rect14" />
  <path
     class="cls-1"
     d="M1687.86,187.3C1541,187.3,1541,88.76,1394.18,88.76S1247.34,187.3,1100.5,187.3Z"
     id="path16" />
  <path
     class="cls-2"
     d="M1394.18,187.3h293.68C1541,187.3,1541,88.76,1394.18,88.76h0Z"
     id="path18" />
  <path
     class="cls-3"
     d="M1580.37,207.57a11.75,11.75,0,0,0-11.75,11.75h23.49A11.75,11.75,0,0,0,1580.37,207.57Z"
     id="path20" />
  <path
     class="cls-4"
     d="M1591.2,211.59a7.72,7.72,0,0,0-7.72,7.72h15.44A7.72,7.72,0,0,0,1591.2,211.59Z"
     id="path22" />
  <path
     class="cls-5"
     d="M1867.17,217.73a12.37,12.37,0,0,0-12.37,12.37h24.74A12.37,12.37,0,0,0,1867.17,217.73Z"
     id="path24" />
  <path
     class="cls-6"
     d="M1879.54,230.1a12.37,12.37,0,0,0-12.37-12.37V230.1Z"
     id="path26" />
  <path
     class="cls-5"
     d="M1282.43,208.59A12.37,12.37,0,0,0,1270.06,221h24.74A12.37,12.37,0,0,0,1282.43,208.59Z"
     id="path28" />
  <path
     class="cls-6"
     d="M1294.8,221a12.37,12.37,0,0,0-12.37-12.37V221Z"
     id="path30" />
  <path
     class="cls-5"
     d="M1361.58,199.24a6.52,6.52,0,0,0-6.52,6.52h13A6.52,6.52,0,0,0,1361.58,199.24Z"
     id="path32" />
  <path
     class="cls-6"
     d="M1368.1,205.76a6.52,6.52,0,0,0-6.52-6.52v6.52Z"
     id="path34" />
  <path
     class="cls-7"
     d="M1465.13,92.18V106.4c0,.49.61.89,1.35.89s1.35-.4,1.35-.89V92.18Z"
     id="path36" />
  <path
     class="cls-8"
     d="M1467.84,92.18V106.4c0,.49-.61.89-1.35.89V92.18Z"
     id="path38" />
  <polygon
     class="cls-3"
     points="1466.48 60.63 1454.08 99.73 1478.89 99.73 1466.48 60.63"
     id="polygon40" />
  <polygon
     class="cls-4"
     points="1478.89 99.73 1466.48 60.63 1466.48 99.73 1478.89 99.73"
     id="polygon42" />
  <path
     class="cls-7"
     d="M1360.59,82.39V92.78c0,.36.44.65,1,.65s1-.29,1-.65V82.39Z"
     id="path44" />
  <path
     class="cls-8"
     d="M1362.57,82.39V92.78c0,.36-.44.65-1,.65v-11Z"
     id="path46" />
  <polygon
     class="cls-3"
     points="1361.58 59.33 1352.52 87.91 1370.64 87.91 1361.58 59.33"
     id="polygon48" />
  <polygon
     class="cls-4"
     points="1370.64 87.91 1361.58 59.33 1361.58 87.91 1370.64 87.91"
     id="polygon50" />
  <path
     class="cls-7"
     d="M1550.86,154.63v14.22c0,.49.61.89,1.35.89s1.35-.4,1.35-.89V154.63Z"
     id="path52" />
  <path
     class="cls-8"
     d="M1553.56,154.63v14.22c0,.49-.61.89-1.35.89V154.63Z"
     id="path54" />
  <polygon
     class="cls-3"
     points="1552.21 123.07 1539.81 162.18 1564.61 162.18 1552.21 123.07"
     id="polygon56" />
  <polygon
     class="cls-4"
     points="1564.61 162.18 1552.21 123.07 1552.21 162.18 1564.61 162.18"
     id="polygon58" />
  <path
     class="cls-7"
     d="M1596.88,179.1v13.33c0,.46.57.84,1.27.84s1.27-.37,1.27-.84V179.1Z"
     id="path60" />
  <path
     class="cls-8"
     d="M1599.42,179.1v13.33c0,.46-.57.84-1.27.84V179.1Z"
     id="path62" />
  <polygon
     class="cls-3"
     points="1598.15 149.51 1586.52 186.19 1609.78 186.19 1598.15 149.51"
     id="polygon64" />
  <polygon
     class="cls-4"
     points="1609.78 186.19 1598.15 149.51 1598.15 186.19 1609.78 186.19"
     id="polygon66" />
  <path
     class="cls-7"
     d="M1431.7,98.25v13.33c0,.46.57.84,1.27.84s1.27-.37,1.27-.84V98.25Z"
     id="path68" />
  <path
     class="cls-8"
     d="M1434.24,98.25v13.33c0,.46-.57.84-1.27.84V98.25Z"
     id="path70" />
  <polygon
     class="cls-3"
     points="1432.97 68.66 1421.34 105.33 1444.6 105.33 1432.97 68.66"
     id="polygon72" />
  <polygon
     class="cls-4"
     points="1444.6 105.33 1432.97 68.66 1432.97 105.33 1444.6 105.33"
     id="polygon74" />
  <path
     class="cls-7"
     d="M1256.31,131.3v14.22c0,.49.61.89,1.35.89s1.35-.4,1.35-.89V131.3Z"
     id="path76" />
  <path
     class="cls-8"
     d="M1259,131.3v14.22c0,.49-.61.89-1.35.89V131.3Z"
     id="path78" />
  <polygon
     class="cls-3"
     points="1257.66 99.74 1245.26 138.85 1270.06 138.85 1257.66 99.74"
     id="polygon80" />
  <polygon
     class="cls-4"
     points="1270.06 138.85 1257.66 99.74 1257.66 138.85 1270.06 138.85"
     id="polygon82" />
  <path
     class="cls-7"
     d="M1079,128.36v14.22c0,.49.61.89,1.35.89s1.35-.4,1.35-.89V128.36Z"
     id="path84" />
  <path
     class="cls-8"
     d="M1081.66,128.36v14.22c0,.49-.61.89-1.35.89V128.36Z"
     id="path86" />
  <polygon
     class="cls-3"
     points="1080.31 96.81 1067.9 135.91 1092.71 135.91 1080.31 96.81"
     id="polygon88" />
  <polygon
     class="cls-4"
     points="1092.71 135.91 1080.31 96.81 1080.31 135.91 1092.71 135.91"
     id="polygon90" />
  <path
     class="cls-7"
     d="M1411.46,150.89v22.23c0,.77.95,1.39,2.11,1.39s2.11-.62,2.11-1.39V150.89Z"
     id="path92" />
  <path
     class="cls-8"
     d="M1415.69,150.89v22.23c0,.77-.95,1.39-2.11,1.39V150.89Z"
     id="path94" />
  <polygon
     class="cls-3"
     points="1413.58 101.55 1394.18 162.7 1432.97 162.7 1413.58 101.55"
     id="polygon96" />
  <polygon
     class="cls-4"
     points="1432.97 162.7 1413.58 101.55 1413.58 162.7 1432.97 162.7"
     id="polygon98" />
  <path
     class="cls-7"
     d="M1330,143.89v22.23c0,.77.95,1.39,2.11,1.39s2.11-.62,2.11-1.39V143.89Z"
     id="path100" />
  <path
     class="cls-8"
     d="M1334.24,143.89v22.23c0,.77-.95,1.39-2.11,1.39V143.89Z"
     id="path102" />
  <polygon
     class="cls-3"
     points="1332.12 94.55 1312.73 155.7 1351.52 155.7 1332.12 94.55"
     id="polygon104" />
  <polygon
     class="cls-4"
     points="1351.52 155.7 1332.12 94.55 1332.12 155.7 1351.52 155.7"
     id="polygon106" />
  <path
     class="cls-3"
     d="M1105.67,200.64a6.88,6.88,0,0,0-6.88,6.88h13.75A6.88,6.88,0,0,0,1105.67,200.64Z"
     id="path108" />
  <path
     class="cls-4"
     d="M1118.91,195.91a11.6,11.6,0,0,0-11.6,11.6h23.2A11.6,11.6,0,0,0,1118.91,195.91Z"
     id="path110" />
  <rect
     class="cls-1"
     x="0.02"
     y="187.3"
     width="1210.17"
     height="47.04"
     id="rect112" />
  <path
     class="cls-1"
     d="M334.15,187.31H0V141.86c25.64-16.7,53.93-31.63,104.45-31.63C219.32,110.23,219.32,187.31,334.15,187.31Z"
     id="path114" />
  <path
     class="cls-2"
     d="M104.48,187.3H334.15c-114.83,0-114.83-77.06-229.67-77.06h0Z"
     id="path116" />
  <path
     class="cls-1"
     d="M627.83,187.3C481,187.3,481,88.76,334.15,88.76S187.31,187.3,40.47,187.3Z"
     id="path118" />
  <path
     class="cls-2"
     d="M334.15,187.3H627.83C481,187.3,481,88.76,334.15,88.76h0Z"
     id="path120" />
  <path
     class="cls-7"
     d="M248.31,162.59V211c0,1.67,2.06,3,4.6,3s4.6-1.36,4.6-3V162.59Z"
     id="path122" />
  <path
     class="cls-9"
     d="M257.51,162.59V211c0,1.67-2.06,3-4.6,3V162.59Z"
     id="path124" />
  <ellipse
     class="cls-3"
     cx="252.91"
     cy="133.4"
     rx="30.51"
     ry="57.43"
     id="ellipse126" />
  <path
     class="cls-4"
     d="M252.91,76V190.83c16.85,0,30.51-25.71,30.51-57.43S269.76,76,252.91,76Z"
     id="path128" />
  <circle
     class="cls-4"
     cx="238.76"
     cy="168.24"
     r="2.94"
     id="circle130" />
  <circle
     class="cls-4"
     cx="246.67"
     cy="146.91"
     r="2.94"
     id="circle132" />
  <circle
     class="cls-4"
     cx="228.18"
     cy="131.25"
     r="2.94"
     id="circle134" />
  <circle
     class="cls-4"
     cx="243.73"
     cy="110.91"
     r="2.94"
     id="circle136" />
  <circle
     class="cls-3"
     cx="259.15"
     cy="88.67"
     r="2.94"
     id="circle138" />
  <circle
     class="cls-3"
     cx="271.11"
     cy="103.2"
     r="2.94"
     id="circle140" />
  <circle
     class="cls-3"
     cx="259.15"
     cy="120.14"
     r="2.94"
     id="circle142" />
  <circle
     class="cls-3"
     cx="271.11"
     cy="129.74"
     r="2.94"
     id="circle144" />
  <circle
     class="cls-3"
     cx="258.15"
     cy="152.79"
     r="2.94"
     id="circle146" />
  <circle
     class="cls-3"
     cx="267.63"
     cy="172.88"
     r="2.94"
     id="circle148" />
  <circle
     class="cls-4"
     cx="238.76"
     cy="93.48"
     r="2.94"
     id="circle150" />
  <path
     class="cls-7"
     d="M136,130.36v66.11c0,2.29,2.81,4.14,6.29,4.14s6.29-1.85,6.29-4.14V130.36Z"
     id="path152" />
  <path
     class="cls-9"
     d="M148.56,130.36v66.11c0,2.29-2.81,4.14-6.29,4.14V130.36Z"
     id="path154" />
  <ellipse
     class="cls-3"
     cx="142.28"
     cy="90.49"
     rx="41.68"
     ry="78.45"
     id="ellipse156" />
  <path
     class="cls-4"
     d="M142.28,12v156.9c23,0,41.68-35.12,41.68-78.45S165.3,12,142.28,12Z"
     id="path158" />
  <circle
     class="cls-4"
     cx="122.95"
     cy="138.08"
     r="4.01"
     id="circle160" />
  <circle
     class="cls-4"
     cx="133.75"
     cy="108.95"
     r="4.01"
     id="circle162" />
  <circle
     class="cls-4"
     cx="108.49"
     cy="87.55"
     r="4.01"
     id="circle164" />
  <circle
     class="cls-4"
     cx="129.74"
     cy="59.76"
     r="4.01"
     id="circle166" />
  <circle
     class="cls-3"
     cx="150.8"
     cy="29.39"
     r="4.01"
     id="circle168" />
  <circle
     class="cls-3"
     cx="167.13"
     cy="49.24"
     r="4.01"
     id="circle170" />
  <circle
     class="cls-3"
     cx="150.8"
     cy="72.36"
     r="4.01"
     id="circle172" />
  <circle
     class="cls-3"
     cx="167.13"
     cy="85.48"
     r="4.01"
     id="circle174" />
  <circle
     class="cls-3"
     cx="149.43"
     cy="116.97"
     r="4.01"
     id="circle176" />
  <circle
     class="cls-3"
     cx="162.38"
     cy="144.42"
     r="4.01"
     id="circle178" />
  <circle
     class="cls-4"
     cx="122.95"
     cy="35.94"
     r="4.01"
     id="circle180" />
  <path
     class="cls-7"
     d="M1053.55,149.3V206c0,2,2.41,3.55,5.39,3.55s5.39-1.59,5.39-3.55V149.3Z"
     id="path182" />
  <path
     class="cls-9"
     d="M1064.33,149.3V206c0,2-2.41,3.55-5.39,3.55V149.3Z"
     id="path184" />
  <ellipse
     class="cls-3"
     cx="1058.94"
     cy="115.11"
     rx="35.75"
     ry="67.28"
     id="ellipse186" />
  <path
     class="cls-4"
     d="M1058.94,47.83V182.39c19.74,0,35.75-30.12,35.75-67.28S1078.69,47.83,1058.94,47.83Z"
     id="path188" />
  <circle
     class="cls-4"
     cx="1042.37"
     cy="155.93"
     r="3.44"
     id="circle190" />
  <circle
     class="cls-4"
     cx="1051.63"
     cy="130.94"
     r="3.44"
     id="circle192" />
  <circle
     class="cls-4"
     cx="1029.97"
     cy="112.59"
     r="3.44"
     id="circle194" />
  <circle
     class="cls-4"
     cx="1048.19"
     cy="88.76"
     r="3.44"
     id="circle196" />
  <circle
     class="cls-3"
     cx="1066.25"
     cy="62.7"
     r="3.44"
     id="circle198" />
  <circle
     class="cls-3"
     cx="1080.26"
     cy="79.73"
     r="3.44"
     id="circle200" />
  <circle
     class="cls-3"
     cx="1066.25"
     cy="99.56"
     r="3.44"
     id="circle202" />
  <circle
     class="cls-3"
     cx="1080.26"
     cy="110.81"
     r="3.44"
     id="circle204" />
  <circle
     class="cls-3"
     cx="1065.08"
     cy="137.82"
     r="3.44"
     id="circle206" />
  <circle
     class="cls-3"
     cx="1076.18"
     cy="161.36"
     r="3.44"
     id="circle208" />
  <circle
     class="cls-4"
     cx="1042.37"
     cy="68.33"
     r="3.44"
     id="circle210" />
  <path
     class="cls-3"
     d="M520.34,207.57a11.75,11.75,0,0,0-11.75,11.75h23.49A11.75,11.75,0,0,0,520.34,207.57Z"
     id="path212" />
  <path
     class="cls-4"
     d="M531.17,211.59a7.72,7.72,0,0,0-7.72,7.72h15.44A7.72,7.72,0,0,0,531.17,211.59Z"
     id="path214" />
  <path
     class="cls-7"
     d="M1215.87,169.09v63.84c0,2.21,2.72,4,6.07,4s6.07-1.79,6.07-4V169.09Z"
     id="path216" />
  <path
     class="cls-9"
     d="M1228,169.09v63.84c0,2.21-2.72,4-6.07,4V169.09Z"
     id="path218" />
  <ellipse
     class="cls-3"
     cx="1221.94"
     cy="130.59"
     rx="40.26"
     ry="75.76"
     id="ellipse220" />
  <path
     class="cls-4"
     d="M1221.94,54.83V206.35c22.23,0,40.26-33.92,40.26-75.76S1244.18,54.83,1221.94,54.83Z"
     id="path222" />
  <circle
     class="cls-4"
     cx="1203.28"
     cy="176.55"
     r="3.88"
     id="circle224" />
  <circle
     class="cls-4"
     cx="1213.71"
     cy="148.41"
     r="3.88"
     id="circle226" />
  <circle
     class="cls-4"
     cx="1189.32"
     cy="127.76"
     r="3.88"
     id="circle228" />
  <circle
     class="cls-4"
     cx="1209.84"
     cy="100.92"
     r="3.88"
     id="circle230" />
  <circle
     class="cls-3"
     cx="1230.17"
     cy="71.58"
     r="3.88"
     id="circle232" />
  <circle
     class="cls-3"
     cx="1245.95"
     cy="90.75"
     r="3.88"
     id="circle234" />
  <circle
     class="cls-3"
     cx="1230.17"
     cy="113.09"
     r="3.88"
     id="circle236" />
  <circle
     class="cls-3"
     cx="1245.95"
     cy="125.76"
     r="3.88"
     id="circle238" />
  <circle
     class="cls-3"
     cx="1228.86"
     cy="156.16"
     r="3.88"
     id="circle240" />
  <circle
     class="cls-3"
     cx="1241.36"
     cy="182.67"
     r="3.88"
     id="circle242" />
  <circle
     class="cls-4"
     cx="1203.28"
     cy="77.92"
     r="3.88"
     id="circle244" />
  <path
     class="cls-3"
     d="M1167.14,229.22a7.72,7.72,0,0,0-7.72,7.72h15.44A7.72,7.72,0,0,0,1167.14,229.22Z"
     id="path246" />
  <path
     class="cls-4"
     d="M1182,223.92a13,13,0,0,0-13,13h26A13,13,0,0,0,1182,223.92Z"
     id="path248" />
  <path
     class="cls-5"
     d="M807.14,217.73a12.37,12.37,0,0,0-12.37,12.37h24.74A12.37,12.37,0,0,0,807.14,217.73Z"
     id="path250" />
  <path
     class="cls-6"
     d="M819.51,230.1a12.37,12.37,0,0,0-12.37-12.37V230.1Z"
     id="path252" />
  <path
     class="cls-5"
     d="M222.4,208.59A12.37,12.37,0,0,0,210,221h24.74A12.37,12.37,0,0,0,222.4,208.59Z"
     id="path254" />
  <path
     class="cls-6"
     d="M234.77,221a12.37,12.37,0,0,0-12.37-12.37V221Z"
     id="path256" />
  <path
     class="cls-5"
     d="M961.17,190.5a6.52,6.52,0,0,0-6.52,6.52h13A6.52,6.52,0,0,0,961.17,190.5Z"
     id="path258" />
  <path
     class="cls-6"
     d="M967.69,197a6.52,6.52,0,0,0-6.52-6.52V197Z"
     id="path260" />
  <path
     class="cls-5"
     d="M665.93,190.5a6.52,6.52,0,0,0-6.52,6.52h13A6.52,6.52,0,0,0,665.93,190.5Z"
     id="path262" />
  <path
     class="cls-6"
     d="M672.45,197a6.52,6.52,0,0,0-6.52-6.52V197Z"
     id="path264" />
  <path
     class="cls-5"
     d="M301.55,199.24a6.52,6.52,0,0,0-6.52,6.52h13A6.52,6.52,0,0,0,301.55,199.24Z"
     id="path266" />
  <path
     class="cls-6"
     d="M308.06,205.76a6.52,6.52,0,0,0-6.52-6.52v6.52Z"
     id="path268" />
  <path
     class="cls-5"
     d="M1087.16,203.46a9.49,9.49,0,0,0-9.49,9.49h19A9.49,9.49,0,0,0,1087.16,203.46Z"
     id="path270" />
  <path
     class="cls-6"
     d="M1096.64,213a9.49,9.49,0,0,0-9.49-9.49V213Z"
     id="path272" />
  <path
     class="cls-7"
     d="M405.1,92.18V106.4c0,.49.61.89,1.35.89s1.35-.4,1.35-.89V92.18Z"
     id="path274" />
  <path
     class="cls-8"
     d="M407.8,92.18V106.4c0,.49-.61.89-1.35.89V92.18Z"
     id="path276" />
  <polygon
     class="cls-3"
     points="406.45 60.63 394.05 99.73 418.86 99.73 406.45 60.63"
     id="polygon278" />
  <polygon
     class="cls-4"
     points="418.86 99.73 406.45 60.63 406.45 99.73 418.86 99.73"
     id="polygon280" />
  <path
     class="cls-7"
     d="M300.56,82.39V92.78c0,.36.44.65,1,.65s1-.29,1-.65V82.39Z"
     id="path282" />
  <path
     class="cls-8"
     d="M302.54,82.39V92.78c0,.36-.44.65-1,.65v-11Z"
     id="path284" />
  <polygon
     class="cls-3"
     points="301.55 59.33 292.48 87.91 310.61 87.91 301.55 59.33"
     id="polygon286" />
  <polygon
     class="cls-4"
     points="310.61 87.91 301.55 59.33 301.55 87.91 310.61 87.91"
     id="polygon288" />
  <path
     class="cls-7"
     d="M490.83,154.63v14.22c0,.49.61.89,1.35.89s1.35-.4,1.35-.89V154.63Z"
     id="path290" />
  <path
     class="cls-8"
     d="M493.53,154.63v14.22c0,.49-.61.89-1.35.89V154.63Z"
     id="path292" />
  <polygon
     class="cls-3"
     points="492.18 123.07 479.78 162.18 504.58 162.18 492.18 123.07"
     id="polygon294" />
  <polygon
     class="cls-4"
     points="504.58 162.18 492.18 123.07 492.18 162.18 504.58 162.18"
     id="polygon296" />
  <path
     class="cls-7"
     d="M997.35,171.64v14.22c0,.49.61.89,1.35.89s1.35-.4,1.35-.89V171.64Z"
     id="path298" />
  <path
     class="cls-8"
     d="M1000.06,171.64v14.22c0,.49-.61.89-1.35.89V171.64Z"
     id="path300" />
  <polygon
     class="cls-3"
     points="998.7 140.09 986.3 179.19 1011.11 179.19 998.7 140.09"
     id="polygon302" />
  <polygon
     class="cls-4"
     points="1011.11 179.19 998.7 140.09 998.7 179.19 1011.11 179.19"
     id="polygon304" />
  <path
     class="cls-7"
     d="M196.27,131.3v14.22c0,.49.61.89,1.35.89s1.35-.4,1.35-.89V131.3Z"
     id="path306" />
  <path
     class="cls-8"
     d="M199,131.3v14.22c0,.49-.61.89-1.35.89V131.3Z"
     id="path308" />
  <polygon
     class="cls-3"
     points="197.63 99.74 185.22 138.85 210.03 138.85 197.63 99.74"
     id="polygon310" />
  <polygon
     class="cls-4"
     points="210.03 138.85 197.63 99.74 197.63 138.85 210.03 138.85"
     id="polygon312" />
  <path
     class="cls-7"
     d="M18.92,128.36v14.22c0,.49.61.89,1.35.89s1.35-.4,1.35-.89V128.36Z"
     id="path314" />
  <path
     class="cls-8"
     d="M21.63,128.36v14.22c0,.49-.61.89-1.35.89V128.36Z"
     id="path316" />
  <polygon
     class="cls-3"
     points="20.27 96.81 7.87 135.91 32.67 135.91 20.27 96.81"
     id="polygon318" />
  <polygon
     class="cls-4"
     points="32.67 135.91 20.27 96.81 20.27 135.91 32.67 135.91"
     id="polygon320" />
  <path
     class="cls-7"
     d="M351.43,150.89v22.23c0,.77.95,1.39,2.11,1.39s2.11-.62,2.11-1.39V150.89Z"
     id="path322" />
  <path
     class="cls-8"
     d="M355.66,150.89v22.23c0,.77-.95,1.39-2.11,1.39V150.89Z"
     id="path324" />
  <polygon
     class="cls-3"
     points="353.54 101.55 334.15 162.7 372.94 162.7 353.54 101.55"
     id="polygon326" />
  <polygon
     class="cls-4"
     points="372.94 162.7 353.54 101.55 353.54 162.7 372.94 162.7"
     id="polygon328" />
  <path
     class="cls-7"
     d="M47.71,158.06v42.32c0,1.46,1.8,2.65,4,2.65s4-1.19,4-2.65V158.06Z"
     id="path330" />
  <path
     class="cls-9"
     d="M55.76,158.06v42.32c0,1.46-1.8,2.65-4,2.65v-45Z"
     id="path332" />
  <ellipse
     class="cls-3"
     cx="51.73"
     cy="132.54"
     rx="26.68"
     ry="50.22"
     id="ellipse334" />
  <path
     class="cls-4"
     d="M51.73,82.32V182.76c14.74,0,26.68-22.48,26.68-50.22S66.47,82.32,51.73,82.32Z"
     id="path336" />
  <circle
     class="cls-4"
     cx="39.36"
     cy="163.01"
     r="2.57"
     id="circle338" />
  <circle
     class="cls-4"
     cx="46.28"
     cy="144.36"
     r="2.57"
     id="circle340" />
  <circle
     class="cls-4"
     cx="30.11"
     cy="130.66"
     r="2.57"
     id="circle342" />
  <circle
     class="cls-4"
     cx="43.71"
     cy="112.87"
     r="2.57"
     id="circle344" />
  <circle
     class="cls-3"
     cx="57.19"
     cy="93.43"
     r="2.57"
     id="circle346" />
  <circle
     class="cls-3"
     cx="67.64"
     cy="106.13"
     r="2.57"
     id="circle348" />
  <circle
     class="cls-3"
     cx="57.19"
     cy="120.94"
     r="2.57"
     id="circle350" />
  <circle
     class="cls-3"
     cx="67.64"
     cy="129.34"
     r="2.57"
     id="circle352" />
  <circle
     class="cls-3"
     cx="56.31"
     cy="149.49"
     r="2.57"
     id="circle354" />
  <circle
     class="cls-3"
     cx="64.6"
     cy="167.06"
     r="2.57"
     id="circle356" />
  <circle
     class="cls-4"
     cx="39.36"
     cy="97.63"
     r="2.57"
     id="circle358" />
  <path
     class="cls-3"
     d="M45.64,200.64a6.88,6.88,0,0,0-6.88,6.88H52.52A6.88,6.88,0,0,0,45.64,200.64Z"
     id="path360" />
  <path
     class="cls-4"
     d="M58.87,195.91a11.6,11.6,0,0,0-11.6,11.6h23.2A11.6,11.6,0,0,0,58.87,195.91Z"
     id="path362" />
  <path
     class="cls-7"
     d="M1474.29,162.59V211c0,1.67,2.06,3,4.6,3s4.6-1.36,4.6-3V162.59Z"
     id="path364" />
  <path
     class="cls-9"
     d="M1483.49,162.59V211c0,1.67-2.06,3-4.6,3V162.59Z"
     id="path366" />
  <ellipse
     class="cls-3"
     cx="1478.89"
     cy="133.4"
     rx="30.51"
     ry="57.43"
     id="ellipse368" />
  <path
     class="cls-4"
     d="M1478.89,76V190.83c16.85,0,30.51-25.71,30.51-57.43S1495.74,76,1478.89,76Z"
     id="path370" />
  <circle
     class="cls-4"
     cx="1464.74"
     cy="168.24"
     r="2.94"
     id="circle372" />
  <circle
     class="cls-4"
     cx="1472.65"
     cy="146.91"
     r="2.94"
     id="circle374" />
  <circle
     class="cls-4"
     cx="1454.16"
     cy="131.25"
     r="2.94"
     id="circle376" />
  <circle
     class="cls-4"
     cx="1469.71"
     cy="110.91"
     r="2.94"
     id="circle378" />
  <circle
     class="cls-3"
     cx="1485.12"
     cy="88.67"
     r="2.94"
     id="circle380" />
  <circle
     class="cls-3"
     cx="1497.08"
     cy="103.2"
     r="2.94"
     id="circle382" />
  <circle
     class="cls-3"
     cx="1485.12"
     cy="120.14"
     r="2.94"
     id="circle384" />
  <circle
     class="cls-3"
     cx="1497.08"
     cy="129.74"
     r="2.94"
     id="circle386" />
  <circle
     class="cls-3"
     cx="1484.13"
     cy="152.79"
     r="2.94"
     id="circle388" />
  <circle
     class="cls-3"
     cx="1493.6"
     cy="172.88"
     r="2.94"
     id="circle390" />
  <circle
     class="cls-4"
     cx="1464.74"
     cy="93.48"
     r="2.94"
     id="circle392" />
  <flowRoot
     xml:space="preserve"
     id="flowRoot4965"
     style="fill:black;stroke:none;stroke-opacity:1;stroke-width:1px;stroke-linejoin:miter;stroke-linecap:butt;fill-opacity:1;font-family:sans-serif;font-style:normal;font-weight:normal;font-size:40px;line-height:125%;letter-spacing:0px;word-spacing:0px"><flowRegion
       id="flowRegion4967"><rect
         id="rect4969"
         width="241.74213"
         height="95.90136"
         x="653.18988"
         y="20.366016" /></flowRegion><flowPara
       id="flowPara4971"></flowPara></flowRoot>  <g
     id="g5960">
    <text
       id="text5937"
       y="188.40178"
       x="655.84064"
       style="font-style:normal;font-weight:normal;font-size:40px;line-height:125%;font-family:sans-serif;letter-spacing:0px;word-spacing:0px;fill:#000000;fill-opacity:1;stroke:none;stroke-width:1px;stroke-linecap:butt;stroke-linejoin:miter;stroke-opacity:1"
       xml:space="preserve"><tspan
         style="letter-spacing:-12px"
         id="tspan5935"
         y="188.40178"
         x="655.84064"
         sodipodi:role="line"><tspan
           id="tspan5933"
           style="font-size:112px;line-height:125%;letter-spacing:-12px;fill:#1e5f30;fill-opacity:1"
           y="188.40178"
           x="655.84064">12</tspan></tspan></text>
    <text
       id="text5943"
       y="188.32385"
       x="761.25037"
       style="font-style:normal;font-weight:normal;font-size:40px;line-height:125%;font-family:sans-serif;letter-spacing:0px;word-spacing:0px;fill:#66bb6a;fill-opacity:1;stroke:none;stroke-width:1px;stroke-linecap:butt;stroke-linejoin:miter;stroke-opacity:1"
       xml:space="preserve"><tspan
         style="letter-spacing:-12px"
         id="tspan5941"
         y="188.32385"
         x="761.25037"
         sodipodi:role="line"><tspan
           id="tspan5939"
           style="font-size:112px;line-height:125%;letter-spacing:-12px;fill:#66bb6a;fill-opacity:1"
           y="188.32385"
           x="761.25037">13</tspan></tspan></text>
    <text
       transform="rotate(-90.613483)"
       id="text5949"
       y="946.48352"
       x="-203.35933"
       style="font-style:normal;font-weight:normal;font-size:40px;line-height:125%;font-family:sans-serif;letter-spacing:0px;word-spacing:0px;fill:#1e5f30;fill-opacity:1;stroke:none;stroke-width:1px;stroke-linecap:butt;stroke-linejoin:miter;stroke-opacity:1"
       xml:space="preserve"><tspan
         id="tspan5947"
         y="946.48352"
         x="-203.35933"
         sodipodi:role="line"><tspan
           id="tspan5945"
           style="font-size:64px;line-height:125%;letter-spacing:-2px"
           y="946.48352"
           x="-203.35933">Ocak</tspan></tspan></text>
  </g>
</svg>
