<svg xmlns="http://www.w3.org/2000/svg" viewBox="0 0 1920 251.66"><defs><style>.cls-1{isolation:isolate;}.cls-2{fill:#ccc;}.cls-3{opacity:0.8;mix-blend-mode:multiply;}.cls-4{fill:#001628;}</style></defs><title>ust_band-01</title><g class="cls-1"><g id="Layer_1" data-name="Layer 1"><path class="cls-2" d="M583.9,98.27v8h-4.33v1.57h67.6v-1.57h-4.1v-8h8.64V80.87H664.9V121h54v8.76H723V121h7.71V54.82h14.64V94.38h9.51v95l33.24,15,33.24-15V143.47h11.37v11.69h11V143.47h9.08V148h7.64v-4.56h6.71v81h13.3v5.94h-9.31v4h57.64v-4H919.5v-5.94h13.3V94.38H947.4V224.44H954v11.88h20.26V224.44h11.87v11.88h20.26V224.44H1013V97.31h30.06v11h13.24v-11h4.37V72.87h31.78v36.63l58.06,23.29V.37H575.26v97.9Zm330,132.1H886.07v-5.94h27.85Zm-275-132.1v8H588v-8Z"/><path class="cls-2" d="M1157.34,77.64V84h-3.42v1.24h53.35V84H1204V77.64h6.82V63.9h10.4V95.57h42.6v6.91h3.27V95.57h6.09V43.35h11.55V74.57h7.5v74.95l26.23,11.88,26.23-11.88V113.31h9v9.23h8.71v-9.23h7.17v3.6h6v-3.6h5.3l1.28-6.1h10.49v4.69h-7.35V115h45.49v-3.15h-7.35v-4.69H1434l-1.28,6.1V74.57h11.53V177.21h5.21v9.37h16v-9.37h9.37v9.37h16v-9.37H1496V76.88h23.72v8.67h10.45V76.88h3.45V57.59h25.08V86.49l45.82,18.38V.37h-454V77.64Zm261.73,34.26h-22v-4.69h22ZM1200.77,77.64V84h-40.16V77.64Z"/><path class="cls-2" d="M1611.6,75.64V82h-3.42v1.24h53.35V82h-3.24V75.64h6.82V61.9h10.4V93.57h42.6v6.91h3.27V93.57h6.09V41.35H1739V72.57h7.5v74.95l26.23,11.88L1799,147.51V111.31h9v9.23h8.71v-9.23h7.17v3.6h6v-3.6h5.3l1.28-6.1h10.49v4.69h-7.35V113h45.49v-3.15h-7.35v-4.69h10.49l-1.28,6.1V72.57h11.53V175.21h5.21v9.37h16v-9.37h9.37v9.37h16v-9.37h5.21V74.88H1974v8.67h10.45V74.88h3.45V55.59H2013V84.49l45.82,18.38V-1.63h-454V75.64Zm261.73,34.26h-22v-4.69h22ZM1655,75.64V82h-40.16V75.64Z"/><path class="cls-2" d="M8.64,112v8H4.31v1.57h67.6V120h-4.1v-8h8.64V94.62H89.64v40.13h54v8.76h4.14v-8.76h7.71V68.57h14.64v39.56h9.51v76l33.24,15,33.24-15V157.22h11.37v11.69h11V157.22h9.08v4.56h7.64v-4.56h6.71v65h13.3v5.94h-9.31v4h57.64v-4h-9.31v-5.94h13.3V108.13h14.61v83.06h6.61v11.88H399V191.19h11.87v11.88h20.26V191.19h6.61V111.06h30.06v11h13.24v-11h4.37V86.62H517.2v36.63l58.06,23.29V-.87H0V112Zm330,116.1H310.81v-5.94h27.85ZM63.67,112v8H12.79v-8Z"/><g class="cls-3"><path class="cls-4" d="M1403.18,126s8.47-6.56,8.47-14.41c0-4.68-3.79-8.05-8.47-8.05s-8.47,3.37-8.47,8.05C1394.71,119.42,1403.18,126,1403.18,126Zm-79,3v.87a4.06,4.06,0,0,0,4.06,4.06h.88v.9h1.35v-.9h7.93v17.89a4.06,4.06,0,0,0,4.06,4.06h25.28a4.06,4.06,0,0,0,4.06-4.06V138.45h45a4.06,4.06,0,0,0,4.06-4.06V116.5h7.93v.9h1.35v-.9h.88a4.06,4.06,0,0,0,4.06-4.06v-.87h1v-1.35h-1V93.39h-3.48v16.83h-.74v1.35h.74v.87a.59.59,0,0,1-.58.58h-.88v-.9h-1.35v.9h-7.93V93.39h-82.43v37h-7.93v-.9h-1.35v.9h-.88a.59.59,0,0,1-.58-.58V129h.74v-1.35h-.74V93.39h-3.48v34.22h-1V129Zm56.76-32.09h6.7v2.77h-6.7Zm0,4.76h6.7v3.58h-6.7Zm0,5.57h6.7v3.58h-6.7Zm0,5.57h6.7v3.58h-6.7Zm0,5.57h6.7v3.58h-6.7Zm0,5.57h6.7v3.58h-6.7Zm-16.11-27h13.83v36h2.28v-3.38h6.7v3.38h2.28v-36h27.44v37.52a.59.59,0,0,1-.58.58h-51.37a.59.59,0,0,1-.58-.58Zm-22.94,0h19.46v37.52a4.06,4.06,0,0,0,4.06,4.06h2.92v13.33a.59.59,0,0,1-.58.58h-25.28a.59.59,0,0,1-.58-.58Z"/><path class="cls-4" d="M1210.29,126s8.47-6.56,8.47-14.41c0-4.68-3.79-8.05-8.47-8.05s-8.47,3.37-8.47,8.05C1201.82,119.42,1210.29,126,1210.29,126Zm-79,3v.87a4.06,4.06,0,0,0,4.06,4.06h.88v.9h1.35v-.9h7.93v17.89a4.06,4.06,0,0,0,4.06,4.06h25.28a4.06,4.06,0,0,0,4.06-4.06V138.45h45a4.06,4.06,0,0,0,4.06-4.06V116.5h7.93v.9h1.35v-.9h.88a4.06,4.06,0,0,0,4.06-4.06v-.87h1v-1.35h-1V93.39h-3.48v16.83h-.74v1.35h.74v.87a.59.59,0,0,1-.58.58h-.88v-.9h-1.35v.9h-7.93V93.39h-82.43v37h-7.93v-.9h-1.35v.9h-.88a.59.59,0,0,1-.58-.58V129h.74v-1.35h-.74V93.39h-3.48v34.22h-1V129ZM1188,96.87h6.7v2.77H1188Zm0,4.76h6.7v3.58H1188Zm0,5.57h6.7v3.58H1188Zm0,5.57h6.7v3.58H1188Zm0,5.57h6.7v3.58H1188Zm0,5.57h6.7v3.58H1188Zm-16.11-27h13.83v36H1188v-3.38h6.7v3.38H1197v-36h27.44v37.52a.59.59,0,0,1-.58.58h-51.37a.59.59,0,0,1-.58-.58Zm-22.94,0h19.46v37.52a4.06,4.06,0,0,0,4.06,4.06h2.92v13.33a.59.59,0,0,1-.58.58h-25.28a.59.59,0,0,1-.58-.58Z"/><path class="cls-4" d="M1286.65,178.68s-6.17-.79-9.39,2.43a4.92,4.92,0,0,0,7,7C1287.43,184.85,1286.65,178.68,1286.65,178.68ZM1276,194.79a2.88,2.88,0,0,0,4.07,4.07c1.88-1.88,1.42-5.49,1.42-5.49S1277.88,192.91,1276,194.79Zm13.17-6.72s-4.37,3.39-4.37,7.43a4.38,4.38,0,0,0,8.74,0C1293.55,191.46,1289.18,188.07,1289.18,188.07Zm7.68,5.3s-.46,3.61,1.42,5.49a2.88,2.88,0,0,0,4.07-4.07C1300.47,192.91,1296.85,193.37,1296.85,193.37Zm4.06-5.47a4.71,4.71,0,0,0,.17-6.78c-3.22-3.22-9.39-2.43-9.39-2.43s-.78,6.17,2.43,9.39A4.71,4.71,0,0,0,1300.91,187.9ZM1279,171.65h-1.87v4h24.1v-4h-1.87l11.1-78.31H1267.9Zm-6.4-73.91,14.39,7.5-12.41,6.47Zm7.45,40.49h18.24l-9.12,9.23Zm15.37,18.42h-12.49l6.25-6.32Zm-14.76-22.46,8.52-6.59,8.52,6.59Zm-3.48-18.42h24l-12,9.28Zm1.71-4,10.29-5.36,10.29,5.36Zm-3.57,5.15,12.21,9.45-9.8,7.58Zm3.21,22.68,9.23,9.34-6.91,7Zm16.74,32.09h-12.19l-1.55-11h15.3Zm2.23-15.76-6.91-7,9.23-9.34Zm3.12-22-9.8-7.58,12.21-9.45Zm3.15-22.2-12.41-6.47,14.39-7.5Zm-1.7-14.33-12.89,6.72-12.89-6.72Z"/><path class="cls-4" d="M1446.08,97.21v2.46H1451v4h-4.94v5.72h7.42v29.05l-3,2.45,21.89,40,16.73,10.23,9.52-7.5-7.52-17.22,51.59-41.73a8.57,8.57,0,0,0,1.85.2,8.47,8.47,0,0,0,6.65-13.71v-7.62h2.64v-3.08h5.26V97.21h6V91.37H1440.46v5.84ZM1508,139.77l-3.85,3.11-3.62-11.39,8.13,3.22Zm1.32-10.12-10.73-4.25-.08-.26,12.5-8.39Zm35.2-10.6a2.66,2.66,0,1,1,2.66-2.66A2.66,2.66,0,0,1,1544.52,119.05Zm-3.28-15.52h6.56v5.06a8.49,8.49,0,0,0-6.56,0Zm-18.74-6.32h13.55v6.32h1.83v7.62a8.43,8.43,0,0,0-1.83,5.25c0,.22,0,.44,0,.66L1518,131.68Zm-9,0-1.2,9.21-15.59-9.21Zm-3,13.9-13.6,9.12-6.73-21.14Zm-54.12-1.73h7.42v-5.72h-4.94v-4h4.94V97.21h16.41l16.46,51.71-13.2,10.68-27.09-23.33Z"/><path class="cls-4" d="M807.88,100.25V104h7.52v6.06h-7.52v8.71h11.29V163l-4.63,3.72,33.32,60.9,25.47,15.57,14.48-11.41-11.45-26.21L954.89,142a12.89,12.89,0,0,0,15.7-12.58,12.83,12.83,0,0,0-2.78-8v-11.6h4v-4.69h8v-4.93H989V91.37H799.32v8.88ZM902.12,165l-5.86,4.74-5.52-17.33,12.38,4.9Zm2-15.4-16.34-6.47-.13-.39,19-12.76ZM957.7,133.5a4,4,0,1,1,4-4A4,4,0,0,1,957.7,133.5Zm-5-23.62h10v7.7a12.92,12.92,0,0,0-10,0Zm-28.51-9.63h20.62v9.63h2.78v11.59a12.83,12.83,0,0,0-2.78,8c0,.34,0,.67,0,1l-27.51,22.25Zm-13.63,0-1.83,14-23.73-14ZM906,121.4l-20.7,13.89L875,103.12Zm-82.38-2.64H834.9v-8.71h-7.52V104h7.52v-3.74h25l25,78.7L864.83,195.2,823.6,159.7Z"/><path class="cls-4" d="M1077.25,90.1a18.29,18.29,0,0,0-10.93-3.86,13.84,13.84,0,0,0-2,.16v20.44h-31V86.24h-.13a19.07,19.07,0,0,0-12.85,5.49v15.1h-11V126.6h7.38a58.42,58.42,0,0,0-18.33,15c-12.33,15.74-12.61,36.62-12.62,37.5a2.36,2.36,0,0,0,2.92,2.31c.85-.21,21-5.28,33.32-21,6.5-8.29,9.65-18,11.18-25.48l6.87,38.6h13.85l3-17.06,30,21.53,6.92-6.2-4-4.62V142.75h8.54v-5.91h-2.89V131.5h2.89v-4.9h5.24V106.83h-26.4Zm-59.57,41.38,5.29,13-18.24-3.1A55.56,55.56,0,0,1,1017.69,131.48Zm-27,44.37c.14-1.53.39-3.53.79-5.84l2.71,4.53C992.84,175.08,991.66,175.52,990.67,175.85Zm7.85-3.22-3.84-6.43,13.74.57A65.21,65.21,0,0,1,998.52,172.63Zm-5-11.2a54.92,54.92,0,0,1,6.62-14.26l10.05,15Zm24.73-4a43.46,43.46,0,0,1-3.12,3.56l-9.9-14.72,18.07,3.07A46.66,46.66,0,0,1,1018.27,157.45Zm8.39-16.43-4.77-11.74c2.41-1.15,4.6-2,6.38-2.69h1.36A72.76,72.76,0,0,1,1026.66,141Zm53.57-9.52h9.52v5.34h-9.52Zm7.19,11.25v21.52L1061,133.5l1.23-6.9h9.35v4.9h2.89v5.34h-2.89v5.91Z"/><rect class="cls-4" x="790" y="-0.87" width="791" height="94"/></g><g class="cls-3"><path class="cls-4" d="M612.71,126s8.47-6.56,8.47-14.41c0-4.68-3.79-8.05-8.47-8.05s-8.47,3.37-8.47,8.05C604.24,119.42,612.71,126,612.71,126Zm-79,3v.87a4.06,4.06,0,0,0,4.06,4.06h.88v.9H540v-.9h7.93v17.89a4.06,4.06,0,0,0,4.06,4.06h25.28a4.06,4.06,0,0,0,4.06-4.06V138.45h45a4.06,4.06,0,0,0,4.06-4.06V116.5h7.93v.9h1.35v-.9h.88a4.06,4.06,0,0,0,4.06-4.06v-.87h1v-1.35h-1V93.39h-3.48v16.83h-.74v1.35h.74v.87a.59.59,0,0,1-.58.58h-.88v-.9H638.3v.9h-7.93V93.39H547.93v37H540v-.9h-1.35v.9h-.88a.59.59,0,0,1-.58-.58V129h.74v-1.35h-.74V93.39h-3.48v34.22h-1V129Zm56.76-32.09h6.7v2.77h-6.7Zm0,4.76h6.7v3.58h-6.7Zm0,5.57h6.7v3.58h-6.7Zm0,5.57h6.7v3.58h-6.7Zm0,5.57h6.7v3.58h-6.7Zm0,5.57h6.7v3.58h-6.7Zm-16.11-27h13.83v36h2.28v-3.38h6.7v3.38h2.28v-36h27.44v37.52a.59.59,0,0,1-.58.58H574.94a.59.59,0,0,1-.58-.58Zm-22.94,0h19.46v37.52a4.06,4.06,0,0,0,4.06,4.06h2.92v13.33a.59.59,0,0,1-.58.58H552a.59.59,0,0,1-.58-.58Z"/><path class="cls-4" d="M419.82,126s8.47-6.56,8.47-14.41c0-4.68-3.79-8.05-8.47-8.05s-8.47,3.37-8.47,8.05C411.34,119.42,419.82,126,419.82,126Zm-79,3v.87a4.06,4.06,0,0,0,4.06,4.06h.88v.9h1.35v-.9H355v17.89a4.06,4.06,0,0,0,4.06,4.06h25.28a4.06,4.06,0,0,0,4.06-4.06V138.45h45a4.06,4.06,0,0,0,4.06-4.06V116.5h7.93v.9h1.35v-.9h.88a4.06,4.06,0,0,0,4.06-4.06v-.87h1v-1.35h-1V93.39h-3.48v16.83h-.74v1.35h.74v.87a.59.59,0,0,1-.58.58h-.88v-.9H445.4v.9h-7.93V93.39H355v37h-7.93v-.9h-1.35v.9h-.88a.59.59,0,0,1-.58-.58V129H345v-1.35h-.74V93.39h-3.48v34.22h-1V129Zm56.76-32.09h6.7v2.77h-6.7Zm0,4.76h6.7v3.58h-6.7Zm0,5.57h6.7v3.58h-6.7Zm0,5.57h6.7v3.58h-6.7Zm0,5.57h6.7v3.58h-6.7Zm0,5.57h6.7v3.58h-6.7Zm-16.11-27H395.3v36h2.28v-3.38h6.7v3.38h2.28v-36H434v37.52a.59.59,0,0,1-.58.58H382a.59.59,0,0,1-.58-.58Zm-22.94,0H378v37.52a4.06,4.06,0,0,0,4.06,4.06H385v13.33a.59.59,0,0,1-.58.58H359.1a.59.59,0,0,1-.58-.58Z"/><path class="cls-4" d="M496.18,178.68s-6.17-.79-9.39,2.43a4.92,4.92,0,0,0,7,7C497,184.85,496.18,178.68,496.18,178.68Zm-10.65,16.11a2.88,2.88,0,0,0,4.07,4.07c1.88-1.88,1.42-5.49,1.42-5.49S487.41,192.91,485.53,194.79Zm13.17-6.72s-4.37,3.39-4.37,7.43a4.38,4.38,0,0,0,8.74,0C503.07,191.46,498.7,188.07,498.7,188.07Zm7.68,5.3s-.46,3.61,1.42,5.49a2.88,2.88,0,0,0,4.07-4.07C510,192.91,506.38,193.37,506.38,193.37Zm4.06-5.47a4.71,4.71,0,0,0,.17-6.78c-3.22-3.22-9.39-2.43-9.39-2.43s-.78,6.17,2.43,9.39A4.71,4.71,0,0,0,510.44,187.9Zm-21.91-16.24h-1.87v4h24.1v-4h-1.87L520,93.35H477.43Zm-6.4-73.91,14.39,7.5-12.41,6.47Zm7.45,40.49h18.24l-9.12,9.23Zm15.37,18.42H492.46l6.25-6.32ZM490.19,134.2l8.52-6.59,8.52,6.59Zm-3.48-18.42h24l-12,9.28Zm1.71-4,10.29-5.36L509,111.74Zm-3.57,5.15,12.21,9.45-9.8,7.58Zm3.21,22.68,9.23,9.34-6.91,7Zm16.74,32.09H492.61l-1.55-11h15.3ZM507,155.89l-6.91-7,9.23-9.34Zm3.12-22-9.8-7.58,12.21-9.45Zm3.15-22.2-12.41-6.47,14.39-7.5Zm-1.7-14.33L498.7,104.1l-12.89-6.72Z"/><path class="cls-4" d="M655.61,97.21v2.46h4.94v4h-4.94v5.72H663v29.05l-3,2.45,21.89,40,16.73,10.23,9.52-7.5-7.52-17.22,51.59-41.73a8.57,8.57,0,0,0,1.85.2,8.47,8.47,0,0,0,6.65-13.71v-7.62h2.64v-3.08h5.26V97.21h6V91.37H650v5.84Zm61.92,42.57-3.85,3.11-3.62-11.39,8.13,3.22Zm1.32-10.12-10.73-4.25-.08-.26,12.5-8.39Zm35.2-10.6a2.66,2.66,0,1,1,2.66-2.66A2.66,2.66,0,0,1,754,119.05Zm-3.28-15.52h6.56v5.06a8.49,8.49,0,0,0-6.56,0ZM732,97.21h13.55v6.32h1.83v7.62a8.43,8.43,0,0,0-1.83,5.25c0,.22,0,.44,0,.66l-18.07,14.62Zm-9,0-1.2,9.21-15.59-9.21Zm-3,13.9-13.6,9.12-6.73-21.14Zm-54.12-1.73h7.42v-5.72h-4.94v-4h4.94V97.21h16.41l16.46,51.71L693,159.59l-27.09-23.33Z"/><path class="cls-4" d="M198.5,100.25V91.37H8.85v8.88H18v4.93h8v4.69h4v11.6a12.88,12.88,0,0,0,10.11,20.87,13,13,0,0,0,2.81-.31l78.52,63.52L110,231.76l14.48,11.41L150,227.6l33.32-60.9L178.65,163V118.76h11.29v-8.71h-7.52V104h7.52v-3.74ZM94.7,157.35l12.38-4.9-5.52,17.33L95.7,165ZM91.13,130l19,12.76-.13.39-16.34,6.47Zm-55.06-.55a4,4,0,1,1,4,4A4,4,0,0,1,36.07,129.46Zm9-11.89a12.92,12.92,0,0,0-10,0v-7.7h10Zm35.36,35.14L53,130.46c0-.33,0-.67,0-1a12.83,12.83,0,0,0-2.78-8V109.88H53v-9.63H73.62Zm32.34-52.46-23.73,14-1.83-14Zm10,2.87-10.24,32.17L91.84,121.4Zm51.44,56.58L133,195.2,112.9,178.95l25-78.7h25V104h7.52v6.06h-7.52v8.71h11.29Z"/><path class="cls-4" d="M286.78,90.1a18.29,18.29,0,0,0-10.93-3.86,13.84,13.84,0,0,0-2,.16v20.44h-31V86.24h-.13a19.07,19.07,0,0,0-12.85,5.49v15.1h-11V126.6h7.38a58.42,58.42,0,0,0-18.33,15c-12.33,15.74-12.61,36.62-12.62,37.5a2.36,2.36,0,0,0,2.92,2.31c.85-.21,21-5.28,33.32-21,6.5-8.29,9.65-18,11.18-25.48l6.87,38.6h13.85l3-17.06,30,21.53,6.92-6.2-4-4.62V142.75h8.54v-5.91h-2.89V131.5h2.89v-4.9h5.24V106.83h-26.4Zm-59.57,41.38,5.29,13-18.24-3.1A55.56,55.56,0,0,1,227.22,131.48Zm-27,44.37c.14-1.53.39-3.53.79-5.84l2.71,4.53C202.37,175.08,201.19,175.52,200.2,175.85Zm7.85-3.22-3.84-6.43,13.74.57A65.21,65.21,0,0,1,208.05,172.63Zm-5-11.2a54.92,54.92,0,0,1,6.62-14.26l10.05,15Zm24.73-4a43.46,43.46,0,0,1-3.12,3.56l-9.9-14.72,18.07,3.07A46.66,46.66,0,0,1,227.8,157.45ZM236.19,141l-4.77-11.74c2.41-1.15,4.6-2,6.38-2.69h1.36A72.76,72.76,0,0,1,236.19,141Zm53.57-9.52h9.52v5.34h-9.52ZM297,142.75v21.52L270.53,133.5l1.23-6.9h9.35v4.9H284v5.34h-2.89v5.91Z"/><rect class="cls-4" y="-0.87" width="790" height="94"/></g><g class="cls-3"><path class="cls-4" d="M1918.19,119s6.81-5.27,6.81-11.57a6.82,6.82,0,0,0-13.61,0C1911.39,113.75,1918.19,119,1918.19,119Zm-63.45,2.39v.7a3.26,3.26,0,0,0,3.26,3.26h.71v.72h1.08v-.72h6.37v14.37a3.26,3.26,0,0,0,3.26,3.26h20.3a3.26,3.26,0,0,0,3.26-3.26V129h36.12a3.26,3.26,0,0,0,3.26-3.26V111.4h6.37v.72h1.08v-.72h.71a3.26,3.26,0,0,0,3.26-3.26v-.7h.84v-1.08h-.84V92.84H1941v13.52h-.6v1.08h.6v.7a.47.47,0,0,1-.47.47h-.71v-.72h-1.08v.72h-6.37V92.84h-66.21v29.73h-6.37v-.72h-1.08v.72H1858a.47.47,0,0,1-.47-.47v-.7h.6v-1.08h-.6V92.84h-2.79v27.49h-.84v1.08Zm45.59-25.78h5.38v2.23h-5.38Zm0,3.83h5.38v2.87h-5.38Zm0,4.47h5.38v2.87h-5.38Zm0,4.47h5.38v2.87h-5.38Zm0,4.47h5.38v2.88h-5.38Zm0,4.47h5.38v2.87h-5.38Zm-12.94-21.72h11.11v28.91h1.83v-2.71h5.38v2.71h1.83V95.63h22v30.14a.47.47,0,0,1-.47.47h-41.26a.47.47,0,0,1-.46-.47Zm-18.43,0h15.63v30.14a3.26,3.26,0,0,0,3.26,3.26h2.34v10.71a.47.47,0,0,1-.47.47h-20.3a.47.47,0,0,1-.47-.47Z"/><path class="cls-4" d="M1740.43,98.35V91.22H1588.11v7.13h7.34v4h6.43v3.77h3.22v9.31a10.35,10.35,0,0,0,8.12,16.77,10.44,10.44,0,0,0,2.26-.25l63.07,51-9.2,21.05,11.63,9.16,20.46-12.51,26.77-48.91-3.72-3V113.22h9.07v-7h-6v-4.87h6v-3Zm-83.37,45.86,9.94-3.94-4.43,13.92-4.71-3.81Zm-2.87-22,15.28,10.25-.1.32-13.12,5.2Zm-44.22-.44a3.25,3.25,0,1,1,3.25,3.25A3.25,3.25,0,0,1,1610,121.81Zm7.26-9.55a10.37,10.37,0,0,0-8,0v-6.18h8Zm28.4,28.23-22.09-17.87c0-.27,0-.54,0-.81a10.31,10.31,0,0,0-2.23-6.42v-9.31h2.23V98.35h16.56Zm26-42.14-19.06,11.26-1.47-11.26Zm8,2.3-8.22,25.84-16.62-11.15Zm41.32,45.45-33.11,28.52-16.14-13.05,20.12-63.21h20.06v3h6v4.87h-6v7h9.07Z"/><path class="cls-4" d="M1811.34,90.2a14.69,14.69,0,0,0-8.78-3.1,11.12,11.12,0,0,0-1.65.12v16.42H1776V87.1h-.11a15.32,15.32,0,0,0-10.32,4.41v12.13h-8.81v15.87h5.93a46.92,46.92,0,0,0-14.72,12c-9.9,12.65-10.13,29.41-10.14,30.12a1.9,1.9,0,0,0,2.35,1.85c.68-.17,16.86-4.24,26.76-16.89,5.22-6.66,7.75-14.47,9-20.47l5.52,31h11.12l2.44-13.7,24.09,17.3,5.56-5-3.19-3.71V132.49h6.86v-4.75H1826v-4.29h2.32v-3.94h4.21V103.63h-21.2Zm-47.84,33.24,4.25,10.47-14.65-2.49A44.63,44.63,0,0,1,1763.5,123.43Zm-21.7,35.64c.11-1.23.31-2.84.64-4.69l2.17,3.64C1743.54,158.45,1742.59,158.8,1741.8,159.07Zm6.31-2.59-3.08-5.16,11,.46A52.38,52.38,0,0,1,1748.1,156.48Zm-4-9a44.11,44.11,0,0,1,5.32-11.45l8.07,12Zm19.87-3.19a34.91,34.91,0,0,1-2.51,2.86l-7.95-11.82,14.51,2.47A37.48,37.48,0,0,1,1764,144.29Zm6.74-13.2-3.83-9.43c1.94-.93,3.69-1.64,5.12-2.16h1.09A58.44,58.44,0,0,1,1770.7,131.1Zm43-7.65h7.65v4.29h-7.65Zm5.77,9v17.28l-21.22-24.72,1-5.54h7.51v3.94h2.32v4.29h-2.32v4.75Z"/><rect class="cls-4" x="1581" y="-0.87" width="635" height="94"/></g></g></g></svg>